# xmcd CD database file
#
# Track frame offsets:
#	150
#	20602
#	54150
#	76177
#	96732
#	118717
#	136362
#	152752
#	173062
#	194630
#	210250
#	230730
#
# Disc length: 3435 seconds
#
# Revision: 2
# Processed by: cddbd v1.4PL0 Copyright (c) Steve Scherf et al.
# Submitted via: CDex 1.40Release
#
DISCID=a00d690c
DTITLE=Barbara Dickson - Don't Think Twice It's All Right
DYEAR=1992
DGENRE=Pop-Folk
TTITLE0=Don't Think Twice It's All Right
TTITLE1=With God On Our Side
TTITLE2=When The Ship Comes In
TTITLE3=Maggie's Farm
TTITLE4=Tears Of Rage
TTITLE5=Oxford Town
TTITLE6=You Ain't Goin' Nowhere
TTITLE7=When I Paint My Masterpiece
TTITLE8=The Times They Are A-Changin'
TTITLE9=Ring Them Bells
TTITLE10=A Hard Rain's A-Gonna Fall
TTITLE11=Blowin' In The Wind
EXTD=YEAR: 1992 ID3G: 53
EXTT0=
EXTT1=
EXTT2=
EXTT3=
EXTT4=
EXTT5=
EXTT6=
EXTT7=
EXTT8=
EXTT9=
EXTT10=
EXTT11=
PLAYORDER=
